<svg width="960" height="300" viewBox="0 0 960 300" fill="none" xmlns="http://www.w3.org/2000/svg">
  <rect width="960" height="300" rx="36" fill="white"/>
  <path d="M169 35C98.3 35 41 92.3 41 163C41 233.7 98.3 291 169 291C214.4 291 255.4 267.2 278.2 228.6L228.8 199.6C217 220.4 194.9 234 169 234C129.8 234 98 202.2 98 163C98 123.8 129.8 92 169 92C194.9 92 217 105.6 228.8 126.4L278.2 97.4C255.4 58.8 214.4 35 169 35Z" fill="#2E2F7F"/>
  <path d="M167.5 76C119.7 76 81 114.7 81 162.5C81 210.3 119.7 249 167.5 249C198.1 249 225.7 233 241.1 207L203.7 185C195.8 198.7 182.4 207.2 167.5 207.2C142.8 207.2 122.8 187.2 122.8 162.5C122.8 137.8 142.8 117.8 167.5 117.8C182.4 117.8 195.8 126.3 203.7 140L241.1 118C225.7 92 198.1 76 167.5 76Z" fill="#E63E8C"/>
  <rect x="233" y="108" width="93" height="93" rx="20" fill="white" stroke="#2E2F7F" stroke-width="8"/>
  <path d="M268 128C268 122.477 272.477 118 278 118H281.5C287.023 118 291.5 122.477 291.5 128V140.5H304C309.523 140.5 314 144.977 314 150.5V154C314 159.523 309.523 164 304 164H291.5V176.5C291.5 182.023 287.023 186.5 281.5 186.5H278C272.477 186.5 268 182.023 268 176.5V164H255.5C249.977 164 245.5 159.523 245.5 154V150.5C245.5 144.977 249.977 140.5 255.5 140.5H268V128Z" fill="#E63E8C" stroke="#2E2F7F" stroke-width="4"/>
  <text x="388" y="118" fill="#E63E8C" font-family="Inter, Arial, sans-serif" font-size="76" font-weight="500">Clinica</text>
  <text x="384" y="222" fill="#2E2F7F" font-family="Inter, Arial, sans-serif" font-size="132" font-weight="700" letter-spacing="1">CORI</text>
</svg>
