<svg width="800" height="560" viewBox="0 0 800 560" fill="none" xmlns="http://www.w3.org/2000/svg">
  <defs>
    <linearGradient id="bg" x1="88" y1="56" x2="712" y2="504" gradientUnits="userSpaceOnUse">
      <stop stop-color="#0F172A"/>
      <stop offset="0.55" stop-color="#1D4ED8"/>
      <stop offset="1" stop-color="#EC4899"/>
    </linearGradient>
    <linearGradient id="panel" x1="160" y1="118" x2="640" y2="440" gradientUnits="userSpaceOnUse">
      <stop stop-color="white" stop-opacity="0.24"/>
      <stop offset="1" stop-color="white" stop-opacity="0.06"/>
    </linearGradient>
  </defs>
  <rect width="800" height="560" rx="48" fill="#020617"/>
  <rect x="40" y="40" width="720" height="480" rx="40" fill="url(#bg)"/>
  <circle cx="154" cy="444" r="122" fill="white" fill-opacity="0.06"/>
  <circle cx="644" cy="116" r="88" fill="white" fill-opacity="0.08"/>
  <rect x="112" y="112" width="576" height="336" rx="32" fill="url(#panel)" stroke="white" stroke-opacity="0.14"/>
  <path d="M400 372C400 372 262 287 262 202C262 165 291 136 327 136C355 136 379 150 400 175C421 150 445 136 473 136C509 136 538 165 538 202C538 287 400 372 400 372Z" fill="white" fill-opacity="0.18"/>
  <path d="M218 290H305L336 236L377 324L418 202L455 290H582" stroke="white" stroke-width="18" stroke-linecap="round" stroke-linejoin="round"/>
  <circle cx="223" cy="290" r="13" fill="#F8FAFC"/>
  <circle cx="577" cy="290" r="13" fill="#F8FAFC"/>
</svg>