<svg width="800" height="560" viewBox="0 0 800 560" fill="none" xmlns="http://www.w3.org/2000/svg">
  <defs>
    <linearGradient id="bg" x1="102" y1="60" x2="700" y2="498" gradientUnits="userSpaceOnUse">
      <stop stop-color="#22C55E"/>
      <stop offset="0.55" stop-color="#06B6D4"/>
      <stop offset="1" stop-color="#8B5CF6"/>
    </linearGradient>
  </defs>
  <rect width="800" height="560" rx="48" fill="#0F172A"/>
  <rect x="40" y="40" width="720" height="480" rx="40" fill="url(#bg)"/>
  <circle cx="628" cy="120" r="92" fill="white" fill-opacity="0.08"/>
  <circle cx="174" cy="430" r="118" fill="white" fill-opacity="0.07"/>
  <rect x="112" y="112" width="576" height="336" rx="32" fill="white" fill-opacity="0.11" stroke="white" stroke-opacity="0.16"/>
  <circle cx="400" cy="218" r="56" fill="white" fill-opacity="0.24"/>
  <path d="M324 367C324 322 360 286 405 286C450 286 486 322 486 367V382H324V367Z" fill="white" fill-opacity="0.22"/>
  <circle cx="378" cy="206" r="6" fill="#F8FAFC"/>
  <circle cx="422" cy="206" r="6" fill="#F8FAFC"/>
  <path d="M380 236C390 245 410 245 420 236" stroke="#F8FAFC" stroke-width="8" stroke-linecap="round"/>
  <path d="M236 188L250 228L292 228L258 252L272 292L236 267L200 292L214 252L180 228L222 228L236 188Z" fill="white" fill-opacity="0.92"/>
  <path d="M560 174L570 202L600 202L575 220L585 248L560 231L535 248L545 220L520 202L550 202L560 174Z" fill="white" fill-opacity="0.9"/>
</svg>